PathFileType	4	(X/Y/Z)	D:\TRACE\v60_Jaco2_6-2-23\BothDRS_Motion3_2-v60.trc
DataRate	CameraRate	NumFrames	NumMarkers	Units	OrigDataRate	OrigDataStartFrame	OrigNumFrames
100.00	100.00	      24	9	mm	100.00	1	      7000
Frame#	Time	front left toe			Front right toe			aft left toe			aft right toe			Arm			FL body			FR body			AL Body			AR Body			
		X1	Y1	Z1	X2	Y2	Z2	X3	Y3	Z3	X4	Y4	Z4	X5	Y5	Z5	X6	Y6	Z6	X7	Y7	Z7	X8	Y8	Z8	X9	Y9	Z9	

1	0.000	-160.98822	80.81306	-310.14029	259.28622	79.62421	-298.02341	-190.28918	-28.56074	308.54382	208.58484	-29.77950	308.76025	52.87638	1258.90955	-232.88530	-21.86783	655.95337	-451.13480	136.61076	654.40485	-442.38181	-65.59631	490.97156	477.72726	85.74207	480.80121	484.35663	
2	0.010	-160.96028	80.80071	-310.11786	259.29095	79.61844	-298.01746	-190.25533	-28.57968	308.56311	208.60672	-29.77912	308.81580	52.85342	1258.87793	-232.93916	-21.89076	655.91840	-451.16135	136.57233	654.41217	-442.38644	-65.56385	490.95044	477.73181	85.72192	480.84409	484.35837	
3	0.020	-160.95844	80.76856	-310.11536	259.21121	79.58460	-298.06720	-190.28374	-28.56093	308.50677	208.59492	-29.75100	308.77551	52.80807	1258.85901	-232.98878	-21.97290	655.93365	-451.23758	136.70869	654.38470	-442.40359	-65.57623	490.94415	477.73495	85.97408	480.74957	484.20779	
4	0.030	-160.95259	80.77948	-310.12189	259.21341	79.57217	-298.04874	-190.24551	-28.58758	308.55478	208.63945	-29.79172	308.83984	52.76138	1258.78796	-233.05807	-21.93202	655.88654	-451.22528	136.55959	654.36371	-442.41315	-65.59885	490.94730	477.68677	86.00290	480.74533	484.20032	
5	0.040	-160.95354	80.79200	-310.15454	259.20871	79.59140	-298.04840	-190.26828	-28.57785	308.58807	208.54550	-29.81201	308.80011	52.66820	1258.76758	-233.06035	-21.96970	655.85443	-451.23682	136.64012	654.33691	-442.46805	-65.62164	490.91360	477.65109	85.73317	480.81024	484.31900	
6	0.050	-160.98645	80.79248	-310.12662	259.23404	79.56776	-298.03458	-190.30196	-28.54683	308.51666	208.61060	-29.78255	308.79572	52.73422	1258.75879	-233.12241	-22.01068	655.80261	-451.26154	136.56415	654.33167	-442.45285	-65.55844	490.93646	477.67813	85.68766	480.80219	484.30392	
7	0.060	-160.98503	80.81100	-310.13730	259.26025	79.63566	-298.02875	-190.26241	-28.57774	308.52670	208.63469	-29.78708	308.80194	52.72103	1258.74658	-233.17441	-22.23921	655.83246	-451.45691	136.69328	654.31702	-442.44055	-65.58682	490.96619	477.64981	85.98584	480.75952	484.17020	
8	0.070	-160.98108	80.81254	-310.11099	259.32117	79.71281	-297.99173	-190.25874	-28.55457	308.52618	208.62320	-29.73933	308.78903	52.69343	1258.72388	-233.22464	-22.23471	655.76813	-451.49600	136.71954	654.29614	-442.45691	-65.61533	490.96088	477.63126	86.00091	480.79199	484.13736	
9	0.080	-161.00552	80.80620	-310.12073	259.13376	79.62531	-298.10486	-190.30449	-28.55811	308.51047	208.57878	-29.74253	308.79306	52.61174	1258.71716	-233.30728	-22.07038	655.52094	-451.52176	136.64734	654.27313	-442.48694	-65.59622	490.96359	477.61450	85.97941	480.78293	484.12881	
10	0.090	-160.98459	80.79607	-310.13556	259.25992	79.63062	-298.01300	-190.29482	-28.57615	308.51147	208.58438	-29.78064	308.80365	52.45957	1258.69568	-233.36806	-22.27272	655.70862	-451.55035	136.68942	654.24146	-442.50241	-65.63495	490.96521	477.58136	85.95794	480.77319	484.11441	
11	0.100	-160.98161	80.77444	-310.15491	259.28302	79.62379	-298.02451	-190.30716	-28.57605	308.51718	208.59012	-29.71302	308.79382	52.46196	1258.66919	-233.41956	-22.31923	655.65326	-451.57877	136.66560	654.18927	-442.56339	-65.61736	490.98718	477.53931	85.99396	480.80026	484.11224	
12	0.110	-160.97566	80.77443	-310.12439	259.31754	79.67676	-298.00613	-190.32262	-28.56301	308.50189	208.58997	-29.76351	308.77460	52.44484	1258.67163	-233.50230	-22.29588	655.62225	-451.61755	136.69980	654.13348	-442.56226	-65.58246	490.98474	477.53577	85.99535	480.79443	484.10968	
13	0.120	-160.98367	80.77993	-310.12256	259.27670	79.67486	-298.02240	-190.31401	-28.57670	308.49594	208.57481	-29.73153	308.74417	52.46829	1258.63977	-233.53439	-22.35465	655.56152	-451.63947	136.65349	654.16089	-442.60373	-65.58733	491.01254	477.46405	86.01315	480.81735	484.08426	
14	0.130	-160.99623	80.78957	-310.13705	259.23856	79.66615	-298.05740	-190.29245	-28.57808	308.51294	208.59845	-29.73367	308.80060	52.45267	1258.63928	-233.55899	-22.36017	655.55298	-451.66080	136.53716	654.13293	-442.65424	-65.67780	491.01105	477.47119	85.99825	480.82651	484.04724	
15	0.140	-160.97804	80.78635	-310.13242	259.23080	79.64170	-298.03177	-190.26486	-28.59612	308.53329	208.57690	-29.73641	308.79477	52.40377	1258.59009	-233.61124	-22.37165	655.47473	-451.70456	136.64868	654.09900	-442.66101	-65.65694	491.00037	477.44455	86.01353	480.83261	484.07526	
16	0.150	-160.99364	80.78793	-310.14618	259.25720	79.66920	-298.04248	-190.32533	-28.55030	308.51154	208.58308	-29.73252	308.73480	52.44956	1258.59204	-233.79193	-22.39495	655.45667	-451.68335	136.73958	654.06067	-442.67520	-65.64745	491.04187	477.42978	85.99187	480.82614	484.03336	
17	0.160	-160.99393	80.78797	-310.08813	259.29303	79.66000	-298.01749	-190.33476	-28.54605	308.50482	208.57475	-29.79375	308.76788	52.37094	1258.59985	-233.65022	-22.39764	655.39899	-451.71884	136.58252	654.01221	-442.71152	-65.62981	491.02673	477.40265	85.96735	480.83817	483.99280	
18	0.170	-161.01527	80.78728	-310.14413	259.24164	79.65484	-298.03296	-190.28999	-28.54714	308.49139	208.56203	-29.70939	308.75214	52.38445	1258.60120	-233.69688	-22.39029	655.39539	-451.74014	136.54381	654.02594	-442.75565	-65.62830	491.03580	477.33133	86.03846	480.83319	484.00070	
19	0.180	-161.01912	80.78284	-310.12524	259.26373	79.63569	-298.03281	-190.32346	-28.55603	308.49609	208.58942	-29.73800	308.76730	52.35201	1258.57825	-233.72455	-22.32299	655.36078	-451.78543	136.60110	653.95807	-442.80991	-65.62730	491.04630	477.31012	86.00033	480.83676	483.96042	
20	0.190	-160.98859	80.78690	-310.12335	259.29056	79.64980	-298.01199	-190.30309	-28.56944	308.49048	208.58485	-29.74692	308.75201	52.35270	1258.55591	-233.75127	-22.33217	655.32025	-451.77231	136.43053	653.95068	-442.85266	-65.66799	491.03281	477.30151	85.99761	480.84024	483.96689	
21	0.200	-160.99602	80.77558	-310.11429	259.17908	79.60627	-298.05511	-190.31317	-28.57154	308.50525	208.59006	-29.72710	308.75214	52.41312	1258.61218	-233.71439	-22.30670	655.28735	-451.78925	136.54060	653.88556	-442.86240	-65.65228	491.01755	477.30734	85.99955	480.82806	483.91409	
22	0.210	-160.98486	80.76355	-310.11865	259.16968	79.59747	-298.06812	-190.31374	-28.58378	308.53879	208.59691	-29.75783	308.77750	52.34409	1258.55786	-233.81335	-22.32625	655.27185	-451.80621	136.50438	653.88965	-442.92950	-65.73076	491.05414	477.25839	85.97126	480.81512	483.90646	
23	0.220	-160.99895	80.79476	-310.13507	259.19299	79.63219	-298.06531	-190.30763	-28.55650	308.47794	208.59871	-29.74177	308.76511	52.36875	1258.51819	-233.84927	-22.17945	655.09619	-451.87674	136.56134	653.83826	-442.94965	-65.60434	491.03824	477.26926	85.99978	480.80630	483.89105	
24	0.230	-160.98257	80.79253	-310.12473	259.26422	79.65681	-298.01492	-190.31824	-28.55920	308.54211	208.54677	-29.77714	308.74976	52.38963	1258.56958	-233.88591	-22.20781	655.20111	-451.85724	136.49619	653.84888	-442.98138	-65.65406	491.06531	477.25058	86.01787	480.81784	483.88129	
